<mxfile host="app.diagrams.net" modified="2022-12-09T06:38:09.726Z" agent="5.0 (Windows NT 10.0; Win64; x64) AppleWebKit/537.36 (KHTML, like Gecko) Chrome/108.0.0.0 Safari/537.36" version="20.6.2" etag="64gcaKlwFArHA0X67sNL" type="github">
  <diagram id="dasvB0Zn25L02WeCKDNE" name="第 1 页">
    <mxGraphModel dx="1182" dy="518" grid="1" gridSize="10" guides="1" tooltips="1" connect="1" arrows="1" fold="1" page="1" pageScale="1" pageWidth="827" pageHeight="1169" math="0" shadow="0">
      <root>
        <mxCell id="0" />
        <mxCell id="1" parent="0" />
        <mxCell id="kqnD7QUbisSVJHf8drRF-5" style="edgeStyle=orthogonalEdgeStyle;rounded=0;orthogonalLoop=1;jettySize=auto;html=1;exitX=1;exitY=0.5;exitDx=0;exitDy=0;" edge="1" parent="1" source="kqnD7QUbisSVJHf8drRF-1" target="kqnD7QUbisSVJHf8drRF-4">
          <mxGeometry relative="1" as="geometry" />
        </mxCell>
        <mxCell id="kqnD7QUbisSVJHf8drRF-1" value="访客" style="rounded=0;whiteSpace=wrap;html=1;" vertex="1" parent="1">
          <mxGeometry x="70" y="230" width="120" height="60" as="geometry" />
        </mxCell>
        <mxCell id="kqnD7QUbisSVJHf8drRF-2" value="黑白灰名单" style="shape=partialRectangle;whiteSpace=wrap;html=1;left=0;right=0;fillColor=none;" vertex="1" parent="1">
          <mxGeometry x="150" y="335" width="100" height="50" as="geometry" />
        </mxCell>
        <mxCell id="kqnD7QUbisSVJHf8drRF-3" value="外部数据库" style="shape=partialRectangle;whiteSpace=wrap;html=1;left=0;right=0;fillColor=none;" vertex="1" parent="1">
          <mxGeometry x="250" y="480" width="100" height="50" as="geometry" />
        </mxCell>
        <mxCell id="kqnD7QUbisSVJHf8drRF-4" value="访客信息录入" style="ellipse;whiteSpace=wrap;html=1;" vertex="1" parent="1">
          <mxGeometry x="240" y="220" width="120" height="80" as="geometry" />
        </mxCell>
        <mxCell id="kqnD7QUbisSVJHf8drRF-10" value="访客登记表" style="shape=partialRectangle;whiteSpace=wrap;html=1;left=0;right=0;fillColor=none;" vertex="1" parent="1">
          <mxGeometry x="550" y="240" width="100" height="50" as="geometry" />
        </mxCell>
        <mxCell id="kqnD7QUbisSVJHf8drRF-15" value="机器人" style="rounded=0;whiteSpace=wrap;html=1;" vertex="1" parent="1">
          <mxGeometry x="354" y="330" width="120" height="60" as="geometry" />
        </mxCell>
        <mxCell id="kqnD7QUbisSVJHf8drRF-16" value="" style="endArrow=classic;startArrow=classic;html=1;rounded=0;entryX=0.5;entryY=1;entryDx=0;entryDy=0;exitX=0.75;exitY=0;exitDx=0;exitDy=0;" edge="1" parent="1" source="kqnD7QUbisSVJHf8drRF-3" target="kqnD7QUbisSVJHf8drRF-15">
          <mxGeometry width="50" height="50" relative="1" as="geometry">
            <mxPoint x="450" y="400" as="sourcePoint" />
            <mxPoint x="500" y="350" as="targetPoint" />
          </mxGeometry>
        </mxCell>
        <mxCell id="kqnD7QUbisSVJHf8drRF-25" value="数据信息" style="edgeLabel;html=1;align=center;verticalAlign=middle;resizable=0;points=[];" vertex="1" connectable="0" parent="kqnD7QUbisSVJHf8drRF-16">
          <mxGeometry x="0.3074" y="2" relative="1" as="geometry">
            <mxPoint x="-12" y="10" as="offset" />
          </mxGeometry>
        </mxCell>
        <mxCell id="kqnD7QUbisSVJHf8drRF-19" value="" style="endArrow=classic;html=1;rounded=0;entryX=0.5;entryY=0;entryDx=0;entryDy=0;exitX=1;exitY=0.5;exitDx=0;exitDy=0;" edge="1" parent="1" source="kqnD7QUbisSVJHf8drRF-4" target="kqnD7QUbisSVJHf8drRF-15">
          <mxGeometry width="50" height="50" relative="1" as="geometry">
            <mxPoint x="414" y="460" as="sourcePoint" />
            <mxPoint x="464" y="410" as="targetPoint" />
          </mxGeometry>
        </mxCell>
        <mxCell id="kqnD7QUbisSVJHf8drRF-20" value="" style="endArrow=classic;startArrow=classic;html=1;rounded=0;entryX=0.5;entryY=1;entryDx=0;entryDy=0;exitX=0.5;exitY=0;exitDx=0;exitDy=0;" edge="1" parent="1" source="kqnD7QUbisSVJHf8drRF-3" target="kqnD7QUbisSVJHf8drRF-2">
          <mxGeometry width="50" height="50" relative="1" as="geometry">
            <mxPoint x="450" y="400" as="sourcePoint" />
            <mxPoint x="500" y="350" as="targetPoint" />
          </mxGeometry>
        </mxCell>
        <mxCell id="kqnD7QUbisSVJHf8drRF-24" value="数据信息" style="edgeLabel;html=1;align=center;verticalAlign=middle;resizable=0;points=[];" vertex="1" connectable="0" parent="kqnD7QUbisSVJHf8drRF-20">
          <mxGeometry x="0.1995" y="-1" relative="1" as="geometry">
            <mxPoint x="9" y="8" as="offset" />
          </mxGeometry>
        </mxCell>
        <mxCell id="kqnD7QUbisSVJHf8drRF-21" value="" style="endArrow=classic;startArrow=classic;html=1;rounded=0;entryX=0;entryY=0.5;entryDx=0;entryDy=0;exitX=1;exitY=0.5;exitDx=0;exitDy=0;" edge="1" parent="1" source="kqnD7QUbisSVJHf8drRF-2" target="kqnD7QUbisSVJHf8drRF-15">
          <mxGeometry width="50" height="50" relative="1" as="geometry">
            <mxPoint x="290" y="395" as="sourcePoint" />
            <mxPoint x="410" y="440" as="targetPoint" />
          </mxGeometry>
        </mxCell>
        <mxCell id="kqnD7QUbisSVJHf8drRF-26" value="数据信息" style="edgeLabel;html=1;align=center;verticalAlign=middle;resizable=0;points=[];" vertex="1" connectable="0" parent="kqnD7QUbisSVJHf8drRF-21">
          <mxGeometry x="-0.3269" y="1" relative="1" as="geometry">
            <mxPoint x="15" as="offset" />
          </mxGeometry>
        </mxCell>
        <mxCell id="kqnD7QUbisSVJHf8drRF-22" value="" style="endArrow=classic;html=1;rounded=0;entryX=0;entryY=0.5;entryDx=0;entryDy=0;exitX=1;exitY=0.25;exitDx=0;exitDy=0;" edge="1" parent="1" source="kqnD7QUbisSVJHf8drRF-15" target="kqnD7QUbisSVJHf8drRF-10">
          <mxGeometry width="50" height="50" relative="1" as="geometry">
            <mxPoint x="450" y="400" as="sourcePoint" />
            <mxPoint x="500" y="350" as="targetPoint" />
          </mxGeometry>
        </mxCell>
        <mxCell id="kqnD7QUbisSVJHf8drRF-27" value="预约成功" style="edgeLabel;html=1;align=center;verticalAlign=middle;resizable=0;points=[];" vertex="1" connectable="0" parent="kqnD7QUbisSVJHf8drRF-22">
          <mxGeometry x="-0.3659" relative="1" as="geometry">
            <mxPoint x="12" y="-13" as="offset" />
          </mxGeometry>
        </mxCell>
        <mxCell id="kqnD7QUbisSVJHf8drRF-23" value="" style="endArrow=classic;html=1;rounded=0;exitX=1;exitY=0.75;exitDx=0;exitDy=0;" edge="1" parent="1" source="kqnD7QUbisSVJHf8drRF-15">
          <mxGeometry width="50" height="50" relative="1" as="geometry">
            <mxPoint x="450" y="400" as="sourcePoint" />
            <mxPoint x="540" y="440" as="targetPoint" />
          </mxGeometry>
        </mxCell>
        <mxCell id="kqnD7QUbisSVJHf8drRF-28" value="预约失败" style="edgeLabel;html=1;align=center;verticalAlign=middle;resizable=0;points=[];" vertex="1" connectable="0" parent="kqnD7QUbisSVJHf8drRF-23">
          <mxGeometry x="-0.2831" y="-4" relative="1" as="geometry">
            <mxPoint x="15" y="9" as="offset" />
          </mxGeometry>
        </mxCell>
      </root>
    </mxGraphModel>
  </diagram>
</mxfile>
